<?xml version="1.0" encoding="utf-8"?>
<!-- Generator: Adobe Illustrator 26.3.1, SVG Export Plug-In . SVG Version: 6.00 Build 0)  -->
<svg version="1.1" id="Layer_1" xmlns="http://www.w3.org/2000/svg" xmlns:xlink="http://www.w3.org/1999/xlink" x="0px" y="0px"
	 viewBox="0 0 367.3 372.5" style="enable-background:new 0 0 367.3 372.5;" xml:space="preserve">
<style type="text/css">
	.st0{fill:#418269;fill-opacity:0.6;}
</style>
<path class="st0" d="M309.5,304.9l1.6-1.6L309.5,304.9z M93.3,254.9l0.9,0.9L93.3,254.9z M266.3,292l1.2-1.2l0.7,0.6l-2,2.4
	L266.3,292L266.3,292z M255.8,291.2h0.9l0.9-0.9l0.9-0.9l0.9-0.9v-0.9l-0.9-1.7h4.3l-0.9,0.9H261v0.9l-0.9,0.9l-0.9,0.9l-0.9,0.9
	l-0.9,0.9l-0.9,0.9l-1.7,0.9v0.9h-0.9v-1.7h0.9L255.8,291.2l-0.7-1l-1.9,1.9l-0.9,1.7L255.8,291.2L255.8,291.2z M105.4,83h0.9v-2.6
	l1.7-0.9l-0.7-0.9l-2.5,2.2l2.3-1.9l-1.6-0.9h0.9v-2h-1.7l-0.9,0.9v1.8C103.8,78.7,105.4,83,105.4,83z M93.3,88.1h-0.9L91.6,89v-0.9
	C91.6,88.1,93.3,88.1,93.3,88.1z M90.7,89l-6.9,8.6h0.9v-0.9l0.9-0.9v-0.9h0.9l0.9-0.9l0.9-0.9v-0.9H89l0.9-0.9v-0.9h0.9v-0.9
	l0.9-0.9L90.7,89L90.7,89z M83,98.5h0.9v0.9h-1.7C82.2,99.4,83,98.5,83,98.5z M82.1,100.2l0.9,0.9L82.1,100.2z M82.1,102.8
	L82.1,102.8z M77.8,108.9L77.8,108.9z M76,111.5l-0.9,0.9l-0.9,0.9v-0.9L76,111.5z M70.9,112.3h0.9v0.9L70.9,112.3z M70.9,114.1v0.9
	l-1.7,0.9v1.8l-2.6,2.6l-0.9,0.9v0.9C65.7,122.1,70.9,114.1,70.9,114.1z M53.6,127l-1,1l-0.3-0.9l0.5-1.9H51v-0.9h0.9v-2.6h0.9v-1.6
	h0.9v-1.8h0.9v-0.9l0.9-1.7l0.9-0.9H57v-0.9l0.9-1.7l0.9-0.9l0.9-2.6V108h0.9l0.9-1.7l0.9-0.9l0.9-0.9v-0.9l0.9-0.9l0.9-0.9v-1.7H66
	v-0.9L53.6,127L53.6,127z M64.8,99.4L64,98.5h-0.9l-0.9,0.9v0.9l-0.9,0.9l-0.9,0.9v0.9h-0.9l-0.9,1.7l-0.9,1.7l-0.9,0.9l-0.9,1.7
	v0.9l-0.9,0.9v0.9h-0.9v1.8l-2.9,2.4l2-3.3v-1.7h-0.9l-0.9,0.9l-0.9,1.7l-0.9,1.7l-0.9,1.7l-0.9,1.7l-0.9,0.9v1.7h1.6l1-1.7v-0.9H51
	l-0.9,1.7v0.9l-0.9,0.9l-0.9,0.9v1.7h-0.9l-1.8,3.4l1-3.4l-0.9-0.9v0.9l-0.9,0.9l-0.9,1.7L43,129v0.9l-0.9,0.9v0.9h-0.9v0.9
	l-0.9,2.6v2.6h-0.9l0.9-3.5l0.9-3.5v-1.7h0.9V127H43v-2.6h0.9v-0.9H43v-3.4h-0.9v1.8l-0.9,0.9l-0.9,1.7l-0.9,2.6h-0.9l0.9-1.7v-1.7
	h0.9v-1.8l0.9-0.9l-0.9-1.7l-0.9,0.9v1.7h-0.9v0.9l-0.9,1.7v1.7h-0.9v0.9l-0.9,1.7v1.7h-0.9v1.8H34v2.6h-0.9v0.9l-0.9,2.6v1.7H32
	v3.4h-0.9v2.6h-0.9v2.6h-0.9v2.6h-0.9v0.9l-1.9,3.4l1-2.5V146h0.9v-3.5h0.9V140h0.9v-1.8h0.9v-0.9l0.9-2.6l0.9-1.7v-3.5h0.9v-1.8
	h0.9V127l0.9-1.7v-1.7h0.9V121h0.9v-1.8H38v-0.9l0.9-1.7l0.9-2.6v-1.7h0.9v-2.6h-1.8l-0.9,0.9l-0.9,0.9v1.8l-0.9-0.9h-0.9l-0.9,1.7
	l-0.9,3.5h-0.9l0.9-2.6v-1.7l0.9-0.9v-0.9h0.9v-0.9h-0.9v-0.9l0.9-0.9v-1.7h-0.9l-0.9,0.9v1.7l-0.9,0.9v1.8l-0.9,0.9l-0.9,1.7v0.9
	h-0.9v1.8l-1.7,0.9v-0.9l0.9-0.9h-0.9v-3.5l0.9-0.9l0.9-2.6v-0.9h0.9V108l0.9-1.7v-2.6h0.9v-3.5l0.9-0.9l-0.9-3.5L32,97.7l-0.9,2.6
	l-0.9,0.9v1.8h-0.9v0.9l-0.9,1.7v0.9h-0.9v-2.6h0.9v-4.4h-0.9v0.9l-0.9,0.9l-0.9,0.9v2.6l-0.9,0.9v0.9h-0.9v0.9l-0.9,1.7l-0.9,1.7
	l-0.9,2.6v0.9h-0.9v3.5h-0.9v1.8H19v0.9l-0.9,1.7l-0.9,2.6v1.7h-0.9v2.6h-0.9v2.6h-0.9v1.8h-0.9v2.7l0.9-0.9h0.9v0.9l-0.9,0.9v1.7
	l-0.9-1.7H13l-0.9,1.7v2.6h-0.9v3.5h-0.9v5.2H9.5v2.6H8.6v2.6H7.8v0.9l-0.9,0.9v3.5H6v4.3h0.9c6.5,3.8,0.6,0.9-0.9,0.9v0.9l-0.9,1.7
	V203c0,3.4,1.7,0.5,1.7,5.2H6v-2.6H5.2v8.7l1.7,4.3v3.5l0.9,0.9v2.6l0.9,0.9v1.7l0.9,0.9v0.9l0.9,0.9v1.7l0.9,1.7v3.5l0.9,2.6
	l0.9,0.9v1.7l0.9,1.7v0.9l0.9,2.6l0.6,2.7l-1.5-2.7l-0.9-0.9v-2.7l-0.9-0.9V242l-0.9-0.9v-1.7l-1.7-0.9l-0.9-1.7v-1.7l-0.9-4.3
	L7,229.1l-1-1.8v-3.5L5.2,223v-2.6l-0.9-1.7V217l-0.9-1.7l0.1-4.4v-1.7l-0.9-0.9v-13l-0.9-3.5l-0.9-4.3v-5.2L0,181.5v32l0.9,0.9v3.5
	l0.9,3.5v1.7l1,3.4h1.6v3.5l0.9,0.9v0.9l1,2.6H4.4v2.6l0.9,2.6l0.9,0.9v0.9l0.9,1.7v1.7l0.9,0.9v1.7l0.9,0.9v0.9l0.9,0.9v0.9
	l0.9,0.9v1.7l0.9,0.9v0.9l0.9,1.7l0.9,0.9v2.6l0.9,0.9l0.9,0.9v0.9l0.9,0.9v0.9l0.9,1.7l1,0.7l0.7,1v1.7l0.9,1.7l0.9,0.9v0.9l1,0.7
	l0.7,1v0.9l0.9,0.9v0.9L24,279l0.9,1.7l0.9,0.9l0.9,0.9l0.9,0.9v0.9l0.9,0.9v0.9l0.9,0.9l0.9,0.9l1,0.7l0.7,1v0.9l0.9,1.7l0.9,0.9
	l0.9,0.9l1,0.7l0.7,1l4.3,4.3l1,0.7c3.8,5.2,7.7,12.2,32.7,33l0.9,0.9l0.9,0.9l0.9,0.9l0.9,0.9l0.9,0.9l1.7,0.9l0.9,0.9l1.7,0.9H83
	l0.9,0.9l0.9,0.9l0.9,0.9l0.9,0.9l1.7,0.9l0.9,0.9l1.7,0.9l0.9,0.9l1.7,0.9l0.9,0.9l1.7,0.9l0.9,0.9h1.7l1,0.7l0.7,1l0.9,0.9
	l0.9,0.9l1.7,0.9l0.9,0.9h0.9l0.9,0.9l1.7,0.9l2.6,0.9l1.7,0.9h2.6l2.6,0.9h12.1l5.3-1c2.5-0.4,5.8-1.4,7.2-1.9
	c3.3,0-0.1-1.7,2.2-0.5l1.7-0.9h6.1l0.9-0.9l0.9-0.9l0.9-0.9l1.7-0.9l0.9-0.9l0.9-0.9l0.9-0.9h0.9l0.9-0.9v-1.7l0.9-0.9l0.9-1.7
	l0.9-0.9l0.9-0.9l0.9-0.9v-0.9l0.7-1l1-0.7l0.9-1.7v-0.9l0.9-0.9v-2.6l0.9-1.7v-9.5l-0.9-3.5h-0.9v1.7l-0.7,1l-1-2.7v-0.9l-0.9-0.9
	v-0.9l-1-0.7l-0.7-1v-0.9l-0.9-0.9v-0.9l-1-0.7l-0.7-1v-0.9l-0.9-0.9l-0.9-0.9l-8.6-7.8l-0.9-0.9l-0.9-0.9h-0.9l-0.9-0.9h-6.7
	l-0.9-1.7H139l0.9,1.7l-2.7-0.8h-0.9l-1-0.7l-0.7-1h-0.9l-0.9-0.9h-2.6l-0.8,2.6l-0.9-0.9V295l-2.6-0.9h-7l-0.9-0.9l-0.9-0.9
	l-0.9-0.9l-1.7-0.9h-0.9l-0.9-0.9h-3.5l-1-0.7l-0.7-1l-0.9-0.9h-1.8v0.9l0.9,0.9l0.9,0.9h0.9l2.6,2.6h0.9l1,1.7l-1.9-0.8h-0.9
	l-0.9-0.9H108l-0.9-0.9l-0.9-0.9h-0.9l-0.9-0.9l-0.9-0.9l-1.7-0.9h-0.9l-0.9-0.9h-0.9l-0.9-0.9h-0.9l-3.5-1.7h-0.9l-1-0.7l-2.4,0.7
	l-0.9-1.7l-1.7-0.9v-2.6h-2.7l-0.9-0.9l-0.9-0.9l-0.9-0.9l-0.9-0.9l-0.9-0.9l-0.9-0.9l-0.9-0.9l-0.9-0.9l-0.9-1.7l-0.9-1.7l-0.9-0.9
	l-1-0.7l-0.7-1v-1.7l-0.9-0.9l-0.9-0.9v-1.7l-0.9-0.9v-0.9L69,258h-0.9v1.7l-0.7,1l-1.9-2.7v-0.9l-0.9-1.7l-0.9-0.9v-1.7l-2.6-1.7
	v-0.9l-0.9-0.9v-3.9l-0.9-1.7l-0.9-2.6c-1.5,0-0.9-0.7-0.9-2.6c0-3.3,0.3-0.3-0.9-2.6l-1-1.7l1.9,0.8l0.9,3.5l5.2,6v0.9l1.7,2.6v1.7
	l0.9,0.9l0.9,0.9l1.9,1.6l0.8-0.5l-1-1v-1.7l-0.9-0.9l-1-0.7l1-1.9v-0.9l-0.9-0.9l-0.9-0.9v-0.9l0.9-1.7l1.7,1.7v0.9l0.9,0.9v0.9
	l0.9,0.9v0.9l0.9,0.9l0.9,1.7l0.9,0.9l0.9,0.9l0.9,0.9l0.9,1.7l0.9,0.9l2.6,2.6v0.9l1,0.7l0.7,1H83l1,0.7l0.7,1v0.9l0.9,0.9h0.9
	l0.9,0.9H89l0.9,0.9h2.6l0.9,0.9l1.7,0.9h1.7l3.4,1.1l-1.7-2.8l-0.9-0.9h-0.9l-0.9-0.9l-0.9-0.9h-2.6l-5.2-6.1l-0.9-0.9l-0.9-0.9
	l-0.9-0.9l-0.9-1.7l-0.9-0.9l-0.9-0.9l-0.9-0.9c-2.4-1.6-3.2-1.6-3.5-5.2l5.2,4.3h0.9l0.9-0.9l0.9,0.9l2.6,1.7v-0.9l-0.9-0.9V248
	l-4.3-3.5l0.9-0.9h-0.4L82,243l1-1v-0.9l-0.9-0.9l-0.9-0.9l-0.9-0.9l-0.9-0.9l-1-0.7l-0.7-1v-0.9l-0.9-0.9l-0.9-0.9v-0.9l-0.9-0.9
	v-0.9l-0.9-1.7l-0.9-0.9l-0.9-0.9V226l-0.9-1.7l-0.9-0.9v-1.7l-0.9-1.7l-0.9-0.9v-0.9l-0.9-0.9v-2.6l-0.9-2.6l-0.9-0.9v-0.9
	l-0.9-3.5v-6.1l-0.9-0.9v-1.7l-0.9-0.9V191h0.9v3.5l0.9,1.7c1.6,0,0.9,5.3,0.9,6.9l0.9,1.7l0.9,1.7l1,0.7l0.9-0.6l-1-1.9v-2.6
	c-1.5,0-0.9-4.5-0.9-6l-0.9-2.6v-13l-0.9-5.2V172h-1.7v-4.3H64l0.9-0.9v-0.9H64v-6l0.9-1.7V153h0.9v-3.4l0.9,0.9h0.9l-0.9-2.6v-3.5
	l0.9,3.5l0.9,0.9v-0.9l0.9-1.7c0-2.7-0.6-4.8,0.9-6v-1.8h0.9l0.1-1.9l0.7,1h0.9l0.9-0.9v-0.9h-0.9l0.9-0.9v-1.7h0.9v-3.5l0.9-0.9
	V127H76l0.9-0.9l0.9-0.9v1.7l0.9,0.9h0.9l0.9-1.7v-0.9h0.9v-2.6h0.9v-0.9L83,121h0.9v-0.9l0.9-1.7l0.9-1.7l0.9-0.9l0.9-0.9l0.9-1.7
	v-1.7H89l0.9-0.9v-0.9H89l0.9-1.7v0.9h0.9V108l0.9-2.6h0.9v0.9h0.9l0.9-0.9v-1.7h-0.9V102L64.8,99.4L64.8,99.4z M96.8,99.4l0.9-1.7
	v0.9C97.7,98.6,96.8,99.4,96.8,99.4z M98.5,96.8l0.9-0.9l0.9-0.9L98.5,96.8z M103.7,94.2L103.7,94.2z M104.6,92.5l0.9-2.6V89
	L104.6,92.5z M107.2,83.8h-0.9l-1,0.7l-0.7,1L107.2,83.8z M103.7,85.6l3.3-6.8l0.1-0.1v-2.6l0.9-0.9l0.9-0.9h1.7v0.9l-0.9,1.7
	l-0.9,2.6l-0.9,0.9l-0.9,1.7h-0.9l-0.9,0.9l-0.7,1l-1,0.7C103.5,84.7,103.7,85.6,103.7,85.6z M125.3,76.9L125.3,76.9z M103.7,84.7
	l0.7-1l1-0.7L103.7,84.7z M135.7,70L135.7,70z M85.6,110.6h0.9v0.9l-0.9,0.9l-0.9,1.7H83v1.7L85.6,110.6z M83.8,115.8v-0.9l0.9-0.9
	L83.8,115.8z M85.6,112.3h-0.9v-0.9l0.9-0.9l1-2.5l1.6-0.1l0.9,1.7C89.1,109.6,85.6,112.3,85.6,112.3z M67.4,55.3l0.9-0.9L67.4,55.3
	z M273.9,348.3L273.9,348.3z M236.8,346.5L236.8,346.5z M218.6,350.9L218.6,350.9z M128.8,53.6l1-0.7l0.7-1h1.8V51h0.9l0.9-0.9
	L135,51l-0.9,0.9l-2.6,0.9l-1.7,1.7h-1.7L128.8,53.6L128.8,53.6z M48,140.6l1.3-0.6l-0.9-1.7v-0.9h0.9v-3.5h0.9v-1.8l0.9-0.9v-1.7
	l0.9,0.9v1.7l1.7,0.9l0.5-1.9l0.4,1.9l0.8,2.6l-2.8,4.1l1.3-1.5l1.6,0.9l-0.7-0.4c0.7-0.5,1.2-1,1.6-1.4l0.5-1
	c0.2,0,0.1,0.2-0.1,0.5l-0.7,4h-3.3c-1,2.8,1.1,0.6-2.6,2.6l-1.7-0.9v2.7h-0.9l0.7-3.5l-0.7-0.8l0,0L48,140.6L48,140.6z M122.7,89
	h0.9l0.9-0.9l0.9-0.9h1.7v-0.9h0.9l0.9-1.7v-0.9l0.9,0.9h1.7l0.9-0.9h0.9l1.7-0.9l0.9-0.9l2.6-0.9v-0.9h1.8v-0.9h1.8v-0.9h0.9
	l0.9-0.9h0.9v-0.9h1.8V76h2.6v-0.9h1.7l2.6-0.9l0.9-0.9h0.9v-0.9h1.8v-0.9h1.7l2.6-0.9h0.9l0.9-0.9v-0.9h3.4v-0.9h2.6l3.5-0.9
	l1.7-0.9V67h0.9l3.5-0.9v-0.9h3.5l0.9-0.9h13.9V64l5.2,0.9c2.7,0,6.6-0.6,7.8,0.9h4.3l2.6,0.9h3.5l1.7,0.9h1.7l2.6,0.9h0.9l1.7,0.9
	h0.9l0.9,0.9h1.7l0.9,0.9l1.7,0.9l2.6,0.9l1.7,0.9l1.7,0.9h4.3l0.9,1.7l0.9,0.9l0.9,0.9h0.9l4.3,3.5h1.7l2.8,2.4l2.4-0.6l3.4,4.3
	h0.9l2.6,2.6v0.9l0.9,0.9l0.9,0.9l1,0.7l0.7,1h0.9l1,0.7l0.7,1v0.9l0.9,0.9l0.9,0.9l3.5,3.5v0.9l0.9,0.9v0.9l0.9,0.9l2.6,2.6v0.9
	l1,0.7l0.7,1v0.9l0.9,0.9l0.9,0.9v2.6l1.7,2.6v0.9l0.9,0.9l0.9,1.7l0.9,0.9v0.9l0.9,0.9v0.9l0.9,0.9v0.9l0.9,1.7v1.7l0.9,0.9v1.7
	l0.9,0.9v0.9l0.9,0.9v2.6l0.9,1.7l0.9,1.7l0.9,0.9v2.6l0.9,2.6l0.9,1.7v2.6l0.9,1.7l0.9,0.9v3.5l0.9,0.9v0.9l0.9,3.5v4.3l0.9,3.5
	v5.2l0.9,5.2v17.4h-0.9l-0.9,0.9v-4.3h-0.9c0,2.7,0.6,4.8-0.9,6c0,2.7,0.6,5.7-0.9,6.9v1.7h0.9l0.9-0.9l0.9-4.3v-2.6h0.9v6.9h-0.9
	v4.3h-0.9v1.8h-0.9v0.9h0.9v3.5h-0.9v0.9l-0.9,2.6v1.7H299v3.4h-0.9v0.9c0,1.8,0.3,3.2,0,4.3v-0.8h-0.9l-0.9,1.7v0.9l-0.9,1.7v2.6
	h-0.9v0.9l-0.9,0.9v1.7H293v1.8h-0.9v1.8h-0.9v0.9l-0.9,1.7V248h-0.9v0.9h0.9l-0.9,1.7v-0.9h-1.7v0.9h1.7v0.9h-0.9v0.9l-0.9,0.9
	l-0.9,0.9v1.7H286l-0.9,0.9v2.6h-0.9l-0.9,0.9v0.9l-0.9,0.9v0.9h-0.9v1.8h-0.9l-0.9,0.9l-0.9,0.9v1.8h-0.9l-0.9,0.9v0.9l-0.9,0.9
	l-0.9,0.9l-0.9,0.9l-0.9,0.9l-0.9,0.9l-0.9,0.9l-0.9,0.9v1.7h-0.9l-0.9,0.9L268,280l-0.9,0.9l-0.9,0.9v0.9l-0.9,0.9l-0.9,0.9
	l-0.9,0.9l-0.9,0.9l-0.9,0.9v-0.9h-1.9l1-1.7l2.6-0.9l0.9-1.7l-0.8-1.7l1.7-0.9v-0.9l0.9-0.9v1.7h0.9l0.9-0.9l0.9-0.9l0.9-1.7
	l0.9-0.9l0.9-1.7v-0.9h0.9l0.9-1.7v-0.9h0.9v-0.9l0.9-0.9l0.9-0.9l0.9-0.9l0.9-1.7v-0.9h0.9V261h0.9l0.9-0.9l0.9-0.9v-0.9l0.9-1.7
	l0.9-1.7l0.9-0.9l0.9-0.9l0.9-2.6l0.9-2.6l0.9-0.9v-1.7h0.9v-0.9l0.9-1.7l0.9-0.9v-2.6h0.9v-0.9l0.9-1.7v-0.9h1.7V235h-1.7v-0.9h0.9
	l1.7-0.9v-1.7h-0.9l-1.7,0.9v-0.9h0.9l0.9-2.6l0.9-2.6l0.9-3.5v-2.6l0.9-0.9h-0.9l0.9-2.6l0.9-4.3v-1.7h0.9v-1.6h0.9v-0.9h-0.9
	l-0.9-3.5h0.9v-0.9l0.9-4.3v-1.7l-0.9-0.9l0.9-1.7V191c-0.3-0.4-3.5-6-0.9-6v-3.5l-0.9-0.9v-3.5l-0.9-0.9l0.9-0.9v-1.7l-0.9-0.9
	l-1-1.7h2.7v-3.5l-0.9-0.9h-0.9l-0.9,0.9V164l-0.9-0.9v-3.5l-0.9-3.5L293,153l-0.9-0.9v-2.6l-0.9-1.7V146l-0.9-2.6l-0.9-2.6
	l-0.9-0.9l-0.9-3.5l-0.9-0.9l-0.9-0.9v-1.7h-0.9v-2.6l-0.9-1.7l-0.9-0.9V126h-1.8v1.7l0.9,1.7l0.9,1.7l0.9,0.9v0.9h0.9v3.5l0.9,0.9
	v1.7l0.9,1.7l0.9,2.6l0.9,1.7l0.9,3.5l0.9,2.6l0.9,2.6l0.9,0.9v3.5l0.9,5.2l0.9,5.2l0.9,4.3l0.9,1.7v10.4c1.4,0,1.3,16.2,0,17.3
	c0,2.7,0.6,6.6-0.9,7.8c0,2.7,0.6,4.8-0.9,6v5.2H293v2.6h-0.9v0.9l-0.9,4.3v3.5h-1.7v0.9h0.9v0.9h-0.9v2.6h-0.9v0.9l-0.9,1.7
	l-0.9,1.7v0.9H286v0.9l-0.9,1.7v1.7h-0.9v1.8h-0.9l-0.9,0.9v1.7l-0.9,0.9v0.9h-0.9l-0.9,0.9v1.8h-0.9v1.8h-0.9v1.8H277v0.9l-0.9,0.9
	l-0.9,0.9l-0.9,1.7l-0.9,0.9l-0.9,1.7l-0.9,0.9l-0.9,1.7v0.9h-0.9l-0.9,0.9l-0.9,0.9l-0.9,1.7l-0.9,0.9l-0.9,0.9v0.9h-0.9v0.9
	l-0.9,0.9l-0.9,0.9l-0.9,0.9v0.9H261v0.9l1.7-0.9h0.9l-0.7,1l-1,0.7l-0.9,0.9l-0.9,0.9l-0.9,0.9l-0.9,0.9l-1.7,0.9l-0.9,0.9
	l-0.9,0.9l-1.7,0.9l-0.9,0.9l-0.9,0.9l-1.7,0.9v2.6l-0.9,1.7v0.9h1.7l0.9-0.9l0.9-0.9h0.9v1.7h-1.7l-0.9,1.7h-1.7l-0.9,0.9l-0.9,0.9
	h-1.8v1.7l-3.4,2.7h2.6l0.9-0.9l1.7-0.9l0.9-0.9v-0.9h0.9l0.9-0.9h0.9l-0.7,1l-1,0.7l-0.9,0.9v0.9h-1.7v0.9h-0.9l-0.9,0.9v0.9h-1.8
	l-0.9,0.9v0.9h-0.9l-0.9,0.9l-0.9,0.9l-0.9,0.9h-0.9l-0.9,0.9v0.9h-1.8v0.9h-0.9l-0.9,0.9h-0.9v0.9H231l-0.9,0.9h-0.9v0.9H229
	l-0.9,0.9h-0.9l-1.7,0.9l-1.7,0.9l-0.9,0.9v0.9h-1.7l-0.9,0.9h-0.9l-1.7,0.9l-1.7,0.9l4.3,0.9v-0.9h1.8v-0.9h1.8v-0.9h0.9l0.9-0.9
	v0.9l-0.9,0.9l-0.9,0.9l-1.7,0.9l2.6,0.9l1.7-0.9l0.9-0.9v-1.7h1.7l1.7-0.9l0.9-0.9l1.7-0.9v-0.9l-0.9-0.9h1.7l0.9-0.9l1.7-0.9v0.9
	h1.7l-1.7-0.9l0.9-0.9l1.7,0.9v-0.9h1.8v-0.9h1.8V312h2.6l4.3-2.6l0.9-0.9l0.9-0.9l1.7-0.9l-0.9,0.9l-0.9,0.9l-0.9,0.9l-0.9,0.9
	l-0.9,0.9H248l-4.3,3.5h-0.9l-0.9,0.9H241v0.9h-0.9l-0.9,0.9h-0.9v0.9h-1.8v0.9h-0.9l-0.9,0.9h-0.9l-0.9,0.9l-0.9,0.9l-0.9,0.9v0.9
	h-3.5l-0.9,0.9v2.6H225l-0.9,0.9h-0.9l-0.9,0.9l-1.7,0.9v0.9h2.6l1.7-0.9V329h1.7l0.9-0.9l0.9-0.9h0.9l0.9-0.9h0.9l1.7,0.9l0.1-1.9
	l0.7,1h0.9l0.9-0.9l1.7-0.9v-0.9h-0.9l1.7-0.9l0.9-0.9h0.9v-0.9l0.9-0.9h3.5l1.7-0.9l0.7-1l1-0.7l0.9-0.9l0.9-0.9v-0.9h1.8v-0.9h1.7
	l0.9-0.9l1.7-0.9l0.9-0.9l3.5-1.7l2.6-1.7l0.9-0.9h0.9l-0.9,0.9l-2.6,1.7l-2.6,1.7h-0.9l-0.9,0.9v0.9H255l-0.9,0.9l-0.9,0.9
	l-1.7,0.9l-0.9,0.9v0.9h-1.8v0.9H248l-0.9,1.7l-1.7,0.9l-0.9,0.9h-0.9l-0.9,0.9l-0.9,0.9v0.9h-2.6l-0.9,0.9v0.9h-1.7l-0.9,0.9
	l-1.7,0.9l-0.9,0.9l-1.7,0.9l-0.9,0.9h-0.9v0.9h-2.3l-0.9,0.9v1.7h1.7v-0.9h0.9l2.6-0.9h0.9l2.6,0.9v-0.9h1.7l2.6-0.9l0.9-0.9h0.9
	v-0.9h2.6l2.6-0.9h0.9V328h1.8v-0.9h0.9l0.9-0.9h0.9v-0.9h1.8v-0.9h1.7l1.7-0.9l1.7-0.9l0.9-0.9l0.9-0.9l0.9-0.9l0.9-0.9l0.9-0.9
	h0.9v-0.9h0.9l0.9-0.9l0.9-0.9h1.8l-0.9,0.9l-1.7,0.9l-0.9,0.9l-0.9,0.9h-0.9l-0.9,0.9v0.9H261l-0.9,0.9l-0.9,0.9l-0.9,0.9h-0.9v0.9
	h-1.7l-0.9,0.9h-0.9l-0.9,0.9l-0.9,0.9l-1.7,0.9v0.9h-0.9l-0.9,0.9H248v0.9h-0.9l-1.7,0.9l-0.9,0.9h-0.9l-1.7,0.9l-0.9,0.9v0.9h-1.8
	l-0.9,0.9v0.9h-2.6v0.9h-1.8l-0.9,0.9v0.9h-1.8l-0.9,0.9v0.9l-0.9,0.9H229l-1.7,0.9l-1.7,0.9l-0.9,0.9v0.9l1.7,0.9h-1.8v0.9H223v0.9
	h-1.7l-0.9,0.9h-1.7l-2.6,0.9h-2.6l-0.9,0.9v0.9l1.7,0.9h3.5v-0.9h1.8V350h2.6v-0.9h2.6v-0.9h1.8v-0.8h1.8l4.3-0.9v-0.9h0.9l0.9-0.9
	h0.9v-0.9h1.7l0.9-0.9v1.7h-1.8l-0.9,0.9l-1.7,0.9l-1.7,0.9l-1.7,0.9l-0.9,0.9v0.9h1.7l2.6-0.9l0.9-0.9l1.7-0.9v-0.9h2.6l1.7-0.9
	v-0.9h1.7l1.7-0.9l2.6-0.9h0.9v-0.9h1.8V341h1.8l0.9-0.9v-0.9h1.7l0.9-0.9l0.9-0.9h0.9V337h2.6l0.9-0.9v-0.9h1.8v-0.9h1.7l1.7-0.9
	l0.9-0.9l0.9-0.9l0.9-0.9v1.7l-1.7,0.9l-0.9,0.9v0.9h-1.8v0.9H261v0.9h-0.9l-0.9,0.9l-1.7,0.9l-0.9,0.9h-0.9v0.9h-1.6v0.9h-0.9
	l-0.9,0.9h-0.9v0.9h-1.8v0.9H248v0.9h-1.8v0.9h-0.9l-0.9,0.9h-0.9v0.9H242l-0.9,0.9h-0.9l-2.6,0.9L236,350l-1.7,0.9l-1.7,0.9
	l3.5,0.9l0.9-0.9l2.6-0.9l2.6-0.9v-0.9h1.7l0.9-0.9h0.9v-0.9h1.8v-0.9h1.8v-0.9h1.7l1.7-0.9l0.9-0.9h0.9v-0.9h2.6l0.9-0.9V341h0.9
	l0.9-0.9h0.9v-0.9h0.9l0.9-0.9h0.9v-0.9h0.9l1.7-0.9h0.9l0.9-0.9v-0.9h0.9l0.9-0.9h1.7v-0.9h0.9l0.9-0.9l0.9-0.9l1.7-0.9l0.9-0.9
	l1.7-0.9l0.9-0.9l0.9-0.9l0.9-0.9l0.9-0.9l0.9-0.9l0.9-0.9h0.9l-0.9,2.6l1.9,0.1l-1,0.7v0.9h1.7v-2.6h1.7v-0.9h0.9l0.9-0.9h0.9v-1.7
	h1.7v-0.9h0.9v-1.7h0.9l0.9-0.9l2.6-0.9l0.9-0.9l0.9-0.9v-0.9l0.9-0.9h0.9l0.9-0.9l0.9-0.9l0.9-0.9h1.7l-0.9,0.9h-0.9l-0.9,0.9v0.9
	l-1.7,0.9H299v0.9l-0.9,0.9l-0.9,0.9l-0.9,0.9l-0.9,0.9l-0.9,0.9l-0.9,0.9l-0.9,0.9l-0.9,0.9l-0.9,0.9L290,324h-0.9l-0.9,0.9
	l-0.9,0.9l-0.9,0.9v0.9h-0.9l-0.9,0.9l-0.9,0.9h-0.9v0.9h-0.9v-1.8H281v-1.7h-1l-0.9,0.9l-0.9,0.9l-0.9,0.9v0.9l2.6-0.9v0.9
	l-0.9,0.9h1.7V331h1.8l-0.9,0.9l-0.9,0.9v0.9H280v1.7h0.9l0.9-0.9v-0.9h0.9l0.9-0.9l1.7-0.9l0.9-0.9l0.9-0.9h0.9l1.7-2.6h0.9
	l-1.7,2.6l-1.7,0.9l-0.9,0.9l-0.9,0.9l-0.9,0.9l-1.7,0.9l-0.9,0.9l-0.9,0.9h-1v0.9h-0.9l-0.9,0.9v0.9h-0.9l-0.9,0.9l-3.5,0.9v0.9
	l0.9,0.9h-2.6v1.7h-1.7l-1.7,0.9l-0.9,0.9v0.9H266l-0.9,0.9h-0.9l-1.7,0.9l-3.5,0.9l-0.9,0.9l-0.9,0.9l-0.9,0.9l-0.9,0.9v0.9h-1.3
	v0.9h-1.8v0.9h-0.9l-1.7,0.9h-0.9v0.9H247v0.9h-1.7l-0.9,0.9h-0.9l-1.7,0.9v0.9h-0.9l-1.7,0.9h-0.9l-1.7,0.9l-2.6,0.9l3.5,0.9
	l0.9-0.9h3.5l1.7-0.9h1.7v-0.9h0.9l1.7-0.9l1.7-0.9l1.7-0.9h0.9v-0.9h1.8v-0.9h1.8V356h1.7l1.7-0.9l0.9-0.9l1.7-0.9l0.9-0.9h4.3
	l0.9-0.9l0.9-1.7l0.9-0.9V348h0.9l0.9-0.9h0.9l-0.9,1.7l1.7-0.9h0.9l0.9-0.9h0.9l0.9-0.9h1.8l-0.9,0.9l-0.9,0.9h-0.9l-0.9,0.9h-1
	l-0.9,0.9h-0.9l-0.9,0.9l-0.9,0.9h-1.7l-0.9,0.9v0.9h-1.7l-0.9,0.9h-0.9v0.9h-0.9L261,356l-1.7,0.9l-1.7,0.9h-0.9l-0.9,0.9v0.9h-1.7
	l-1.7,0.9h-0.9v0.9h-0.9l-1.7,0.9h-2.6v0.9h-3.5l-1.7,0.9h-0.9v0.9h-1.8v0.9H236v0.9h-2.6v0.9h-1.7l-3.5,0.9l-3.5,0.9h-0.9v0.9h-2.5
	v1.7h4.3v-0.9h3.5v-0.9h4.3l3.5-0.9l3.5-0.9l1.7-0.9v0.9h0.9v-0.9h1.7l2.6-0.9h0.9l0.9-0.9v-0.9h2.6l0.9-0.9h0.9v-1h3.5v-0.9h0.9
	v-0.9h4.3l0.9-1.7l1.7-0.9h0.9v-0.9h1.7l2.6-0.9l3.5-0.9h1.7l0.9-0.9l0.9-0.9l0.9-1.7v-0.9h1.8v-0.9h2.6l0.9-0.9h1.7l0.9-3.5
	l2.6-0.9v-1.9l1.7,1h0.9l0.9-0.9v-0.9h1.7l0.9-0.9l0.9-0.9l0.9-0.9h0.9V339h0.9l0.9-0.9h0.9l0.9-0.9V337H299l0.9-1.7h0.9v-0.9h0.9
	l1.7,0.9h0.9l0.9-0.9l0.9-0.9l0.9-0.9l0.1-1.9l0.7,1h0.9l0.9-2.6l2.6-0.9l0.9-1.7l0.9-0.9l0.9-0.9l0.9-0.9l1.7-0.9l0.9-0.9v-1.7
	l-1.9,1l-0.7-0.9l1.7-0.9l0.9-0.9l0.9-0.9l0.9-0.9l0.9-0.9l0.9-0.9l0.9-0.9v-0.9l0.9-0.9h0.9l0.9-0.9l0.9-0.9l0.9-0.9l0.9-0.9
	l0.9-1.7l0.9-0.9v-0.9l0.9-0.9h0.9v-2.6h0.9l0.9-0.9v-0.9l0.9-0.9h0.9l0.9-0.9l0.9-0.9l0.9-0.9v-1.8h0.9l0.9-2.6l0.9-0.9v-0.9
	l0.9-0.9l0.9-1.7l0.9-0.9V286h0.9v-1.8h0.9v-3.5h1.7v-6.2h1.7l0.9-0.9v-0.9l0.9-0.9l0.9-0.9l0.9-2.6l0.9-2.6l0.9-2.6l0.9-1.7v-1.7
	h0.9v-2.6h0.9l0.9-0.9l0.9-3.5l0.9-3.5v-2.6h-1.7v-0.9h0.9v-5.2h0.9v-4.3h0.9v-1.7l0.9-1.7v-2.6h0.9v-2.6h0.9v-1.7l0.9-1.7v-2.6h0.9
	v-5.2h0.9v-0.9h-3v-0.9h0.9V212l0.9-3.5v-6.9h0.9v-1.7h-0.9v-14.7l-0.9-1.7l-0.9-0.9h0.9v-0.9H363v-11.2c-1.6,0-0.9-5.3-0.9-6.9
	l-0.9-5.2v-0.9h-0.9v-3.4h-0.9v-5.2h-0.9v-4.3h-0.9V142l-0.9-4.3l-0.9-0.9v-2.6h-0.9v-1.7l-0.9-1.7v-0.9h-0.9v-2.6l-0.9-1.7v-1.7
	h-0.9v-1.7l-0.9-1.7l-0.9-0.9v-0.9l-0.9-1.7v-1.7l-0.9-0.9l-0.9-0.9v-0.9l-0.9-0.9v-0.9l-0.9-0.9V109l-0.9-0.9v-2.6l-0.9-0.9
	l-0.9-1.7l-1.7-0.9v-2.6l-0.9-1.7l-0.9-0.9l-0.9-0.9V95l-0.9-0.9v-0.9l-0.9-0.9v-0.9l-2.6-2.6v-1.7l-0.9-0.9l-0.9-0.9l-0.9-0.9
	l-0.9-0.9v-0.9l-0.9-0.9v-0.9l-0.9-0.9l-1-0.7l-0.7-1v-0.9l-1-0.7l-0.7-1V76l-0.9-0.9l-0.9-0.9v-0.9l-0.9-0.9l-0.9-0.9l-0.9-0.9
	l-0.9-0.9l-0.9-0.9l-0.9-0.9l-0.9-0.9l-0.9-0.9c-2.7-1.8-6.6-4.5-6.9-8.6l-2.5,1l-0.9-1.9l-0.9-0.9l-0.9-0.9h-3.5l-1.7-0.9l-0.9-0.9
	l-0.9-0.9l-1.7-0.9l-0.9-1.7h-0.9V51l0.9,0.9h0.9v0.9h1.7l0.9,0.9l0.9,0.9v1.7l3,3.2l-0.8,0.7l-4.2-3.6l-1.4,0.6l-0.9-0.9l-2.6-0.9
	l-0.9-1.7h-1.7l-4.3-1.7l-0.9-0.9h-0.9l-0.9-0.9l-0.9-0.9h-1.7l-1-0.7l-0.7-1l-0.9-0.9h-0.9l-0.9-0.9h-1.7l-0.9-0.9l-0.9-0.9h-0.9
	l-0.9-0.9H267l-2.7-0.4l-0.9,0.2l1.9,1.9l0.9,0.9h2.6l0.9,1.7l0.9,0.9l0.9,0.9h2.6l0.9,0.9l0.9,0.9h0.9l1,0.7l0.7,1l0.9,0.9l1.7,0.9
	l0.9,0.9l1.7,0.9l0.9,0.9v1.7h1.7l2.6,2.6h0.9l2.6,2.6l0.9,0.9v1.7l1.7,1.7l0.9,0.9l2.6,2.6l0.9,1.7l0.9,0.9l0.9,0.9l0.9,0.9
	l0.9,0.9l0.9,1.7c2.7,1.8,3.5,2.4,4.3,6v0.9l0.9,0.9l2.6,3.5v0.9l0.9,0.9l0.9,1.7l0.9,0.9v0.9l0.9,0.9l0.9,1.7l0.9,0.9v0.9l0.9,0.9
	v0.9l1,2.5l-1.9-2.5l-0.9-1.7l-0.9-1.7l-0.9-1.7l-0.9-0.9v-0.9l-1.7-2.6l-0.9-0.9l-0.9-0.9V89h-0.9l-0.9,0.9l-0.9-0.9v-0.9l-5.2-5.2
	V82l-0.9-0.9l-0.9-0.9l-0.9-0.9l-0.9-0.9l-0.9-0.9l-0.9-0.9l-0.9-0.9l-0.9-0.9l-0.9-0.9l-0.9-0.9l-0.9-0.9l-0.9-0.9l-0.9-0.9
	l-0.9-0.9h-1.7l-0.9-1.7H286l-4.3-3.5l-0.9-0.9l-0.9-0.9H279l-2.6-2.6h-2.6l-1.7-2.6h-0.9l-3.5-2.6H266l-3.5-3.5l-0.9-0.9l-2.6-0.9
	h-0.9l-2.6-1.7h-0.9l-0.9-0.9l-0.9-0.9l-1.7-0.9h-1.7l-0.9-0.9l-1.7-0.9h-1.7l-3.5-1.7h-0.9l-0.9-0.9l-1.7-0.9h-0.9l-0.9-0.9H232
	l-3.5-2.6H225l-0.9-0.9h-2.8l-3.5-1.7h-0.9l-0.9-0.9h-3.5v-0.9L210,32h-5.2v-0.9h-4.3v-0.9h-0.9v0.9h-3.5v-0.9h-19v0.9h-8.7V32h-4.3
	l-1.7,0.9h-1.7v0.9h-2.6l-1.7,0.9v2.7h-1.8V38H152l-0.9,0.9h-0.9v1.7l0.9-0.9l2.7,0.4l-1.9,0.5l-0.9,0.9h-2.6v0.9h-1.8l-1.7,0.9v0.9
	h-2.6l-1.7,0.9V46h-3.2v0.9h-0.9l-1.7,0.9l-0.9,0.9H133v-0.9h-0.9l-0.9,0.9v0.9h-1.7l-0.9,0.9h-0.9V51H126l-2.6,0.9h-0.9v0.9h-2.6
	l-0.9,0.9v0.9h-2.6v0.9h-1.8v0.9h-1.8V57H111v0.9h-1.8l-0.9,0.9v0.9h-1.2v0.9h-0.9l-0.9,0.9v-0.9h-1.7l-0.9,1.7H102l-3.5,2.6v0.9
	h-0.9v-1.7l1.6-0.1l1.9-2.5h-1.7l-0.9,0.9l-0.9,0.9v0.9h-0.9l-0.9,0.9l1.7,0.9l-0.9,0.9l-0.9,0.9l-0.9,0.9h-0.9l-2.7,2.7L89.9,70
	L89,70.9l-1.7,0.9v1.7l2.6-0.8L89,73.5l-0.9,0.9h-0.9l-1.7-0.9v0.9H83L82.1,77l-0.9,0.9l-0.9,0.9l-0.9,0.9l-0.9,0.9l-0.9,0.9V83
	h-0.9L76,83.8l-0.9,0.9v0.9l-0.9,0.9l-0.9,0.9l-0.9,0.9v-2.6h-0.9l-0.9,0.9v1.7h1.7L71.7,89v0.9h-0.9v0.9L70,91.6v0.9h-0.9v1.8h-2.6
	v0.9h-0.9l-0.9,2.6v1.7h1.8l0.9-1.7v-0.9h0.9l0.9-0.9l0.7-1l1-0.7v-0.9l0.9-0.9v-1.7h0.9l0.9-0.9l0.9-0.9l0.9-0.9l0.9-0.9h0.9
	l0.9-1.7l0.9-0.9l0.9-0.9v0.9L79,85.5v0.9l-0.9,1.7L76.9,89v0.9H76l-0.9,0.9h-0.9l-1.7,2.6l-0.9,0.9L70,95.9l-0.9,0.9v1.7h-0.9
	l-0.9,0.9v0.9h-0.9v1.7h-0.9v1.8h-0.9l-0.9,0.9l-0.9,0.9v3.5h-0.9l-0.9,1.7v1.7h-1.7v1.7l-0.9,0.9v2.6h-0.9l-0.9,1.7v1.7h-0.9v0.9
	l-0.9,0.9l-0.9,0.9l-0.9,1.7v2.6l0.8,0.4l2.7-0.4c-0.6,1.1-0.9,0.9-0.9,2.6c0,3.6,0.1,1.8-0.9,2.6v1.7l1.4-0.2L60,129l-0.9,3.2
	l4.3,1.1v-2.6h1.7l0.1-6.2l2.5,1v-1.7H66v-1.7l0.9-0.9l-0.9,0.9h-0.9v0.9h-0.9l0.9-1.7l0.9-1.7l0.9-0.9v-0.9l0.9-0.9l0.9-0.9v-0.9
	l0.9-0.9l0.9-1.7l1-2.7l0.7,1l0.9,1.7H74l0.9-0.9l1.7-2.6l0.9-1.7h0.9l-0.9,1.7l3.6-3.6l0.7,1l-1,0.1l0.9,0.4l2.7-1.4l-1.2-2.7
	l-0.6,2l-0.7-1H81v-0.9l0.9-2.6v-0.9l0.9-0.9l0.9-0.9l0.9-0.9l0.9-1.7l0.9-0.9l0.9-0.9l0.9-0.9l0.9-0.9l0.9-0.9l0.9-1.7l0.9-0.9
	l0.9-0.9l0.9-0.9l0.9-0.9l0.9-0.9l0.9-0.9l0.9-0.9l0.9-0.9l0.9-0.9l0.9-0.9l0.9-0.9l0.9-0.9l0.9-0.9l0.9-0.9l0.9-0.9l0.9-0.9
	l0.9-1.7l0.9-0.9l0.9-0.9l0.9-0.9l0.9-0.9l0.9-0.9l0.9-0.9l0.9-0.9h0.9l0.9-0.9l1.7-0.9v-0.9h0.9l0.9-0.9h0.9v-0.9h1.8V61h1.8v-0.9
	h1.7l0.9-0.9h0.9l0.9-0.9v-0.9h2.6v-0.9h1.8v-0.4h2.6v-0.9h1.8l1.7-0.9l0.9-0.9v-0.9h1.8v-0.9h1.7l0.9-0.9h0.9v-0.9h1.8l4.3-1.7h1.8
	l2.6-0.9v-0.9h1.7l0.9-0.9v1.8H153l-1.7,0.9h-0.9l-2.6,1.7v3l0.9-0.9h1.7l-0.9,0.9l-0.7,0.7l0.7,1h0.9v-0.9h1.8v-0.9h1.7l1.7-0.9
	h0.9V51h1.7l0.9,0.9h-1.7l-0.9,0.9h-0.9v0.9h-1.7l-1.7,0.9h-0.9v0.9H147v0.9h-2.6V57h-1.7l-0.9,0.9h-0.9l-0.9,1.7l-3.5,0.9l-0.9,0.9
	l-0.9,0.9l-1.7,0.9l-0.9,0.9l-1.7,0.9l-0.9,0.9l-0.9,0.9l-0.9,0.9v0.9h1.7l1.7-0.9l1.7-0.9v-1.7h1.7l1.7-0.9v-1.9l1.7,1h1.7l1.7-0.9
	v-0.9h2.6l2.6-0.9l0.9-0.9l0.9-0.9h1.7l0.9-0.9v1.7h-1.7v0.9l0.9,0.9h-0.9l-0.9,0.9v0.9l0.9,0.9l-1.7-0.9h-0.9l-0.9,0.9V65h-0.9
	l-0.9,0.9l-0.9,0.9l-1.7,0.9v1.7h0.9l1.7-0.9l0.9-0.9l1.7-0.9l0.9-0.9h0.9l0.9-0.9h5.1V64l0.9,0.9h0.9V64h2.6v-0.9l0.9-0.9l2.6,0.9
	l0.9-0.9v-0.9h2.6v-0.9h4.4l1.7-0.9v-0.9h1.7l2.7,0.1l-1,0.7v0.9h-2.6v0.9h-3.5l-1.7,0.9v-0.9h-0.9l-2.6,0.9v1.7h-1.7l-0.9,0.9h-1.8
	v0.9h-2.6v0.9h-1.8l-0.9,0.9v0.9l-3.5,0.9h-0.9l-0.9,0.9V71l-1.7,0.9l-0.9,0.9H146v0.9h-1.8v0.9h-1.7l-0.9,0.9H140V76l-1.7,0.9
	l-1.7,0.9h-0.9l-0.9,0.9v0.9H133v0.9h-1.7l-0.9,0.9l-1,1l-0.7-0.9l1.7-0.9l1.7-0.9l0.9-0.9v-0.9h-1.7l-1.7,0.9l-0.9,0.9l-1.7,0.9
	v0.9h-0.9l-0.9,0.9h-0.9l-0.9,0.9l-0.9,0.9v0.9H121l-0.9,0.9h-0.9v0.9h-0.9l-1.7,0.9l-0.9,0.9l-0.9,0.9h-0.9v0.9H113l-0.9,0.9
	l-0.9,0.9l-0.9,0.9h-0.9v0.9l-1.7,0.9l-0.9,0.9l-0.9,0.9l-0.9,0.9l-0.9,0.9l-0.9,0.9l-0.9,0.9l-0.9,0.9l-0.9,0.9l-0.9,0.9l-0.9,0.9
	l-0.9,1.7h-0.9v0.9l-0.9,0.9v0.9h-0.9l-0.9,0.9v0.9l-0.9,0.9l-0.9,0.9v0.9h-0.9v0.9l-0.9,0.9l-0.9,0.9l-0.9,1.7l-0.9,0.9l-0.9,1.7
	l-0.9,0.9l-0.9,0.9l-0.9,1.7l-0.9,1.7v0.9h-0.9v0.9L83,127l-0.9,1.7l-0.9,1.7v1.7h-0.9v0.9l-0.9,3.5l-0.9,0.9l-0.9,2.6l-0.9,1.7v7.8
	H76v3.5l-0.9,0.9l-0.9,1.7v-4.4h-0.9l-0.9,3.5v1.7l0.9,3.5H75v-1.7h1v-0.9l0.9-1.7l0.9-1.7v-2.6l0.9-1.7l0.9-3.5v-1.7h0.9l0.9-0.9
	l0.9-0.9v-0.9L83,140l0.9-1.7v-4.4h1.7l0.9-1.7l0.9-2.6l0.9-0.9v-0.9l-0.9-1.7l0.9-1.7v1.7H89l0.9-0.9l0.9-0.9v-2.6l-0.9-0.9
	l1.7-0.9l0.9-0.9v-1.7l0.9-0.9l0.9-1.7V113l0.9,0.9h0.9v0.9H97v-0.9h0.9V113l0.9-0.9l0.9-1.7l0.9-0.9l0.9-0.9v-1.7h1.7l0.9-0.9
	l0.9-1.7l0.9-0.9l0.9-0.9l0.9-0.9l0.9-0.9l1.7-0.9h0.9v-0.9l0.9-0.9l0.9-0.9l0.9-0.9l0.9-0.9l0.9-0.9l1.7-0.9h0.9v-0.9l0.9-0.9
	l0.9-0.9V89l0.9-1.7v2.6h1.7l0.9-0.9L122.7,89L122.7,89z M89,122.7V121h0.9l-0.1,2.7L89,122.7z M121.9,87.3l0.9-0.9l1-0.8l-1,1.7
	l-0.9,0.9C121.9,88.2,121.9,87.3,121.9,87.3z M78.6,106.3l0.9-0.9v-0.9h0.9v-0.9h0.9l-0.9,1.7l-0.9,0.9l-0.9,0.9
	C78.6,107.1,78.6,106.3,78.6,106.3z M79.5,102.8l-0.9,0.9v-0.9l0.9-0.9V102.8z M127.9,55.3v-0.9l-2.6,0.9v0.9L127.9,55.3z
	 M135.7,49.3h0.9l0.9,0.9h-1.7L135.7,49.3L135.7,49.3L135.7,49.3z M87.3,74.3l-0.9,0.9L85.6,76l-0.9,0.9l0.9-1.7v-0.9
	C85.6,74.3,87.3,74.3,87.3,74.3z M84.7,76.9v0.9l-1.9,1.9l-0.6-0.9L84.7,76.9z M83.8,101.1H83l-0.9,1.7l1.5-0.5l2.8,1.4v-1.6
	L83.8,101.1z M76.9,110.6l0.9-0.9h-0.9V110.6l-0.9,0.9L76.9,110.6z M71.7,113.2l-0.9,0.9L71.7,113.2z M64,124.4v0.9l1-1.7
	C65,123.6,64,124.4,64,124.4z M3.9,160.6l-0.6,1.8L3.9,160.6z M22.5,276.5h-0.9v-0.9L22.5,276.5z M20.7,274.8l-0.9-0.9V273l1,0.7
	l0.7,1L20.7,274.8L20.7,274.8z M89.9,265.3H89v-0.9L89.9,265.3z M96.8,264.4l-0.9-0.9h0.9V264.4z M87.3,264.4h-0.9v-0.9L87.3,264.4z
	 M76.9,261.8L76,261l-1.7-0.9l-0.9-0.9l-0.9-1.7l-0.9-0.9l-0.9-1.7l-0.9-0.9l-0.9-0.9l-0.9-0.9v-0.9l1.9,1.6l0.8-0.5l-1-1h0.9
	l0.9,0.9l0.9,1.7h0.9v0.9l0.9,0.9l0.9,1.7l0.9,0.9l0.9,0.9l0.9,0.9l0.9,0.9v1.7h-1.8L76.9,261.8L76.9,261.8z M72.6,262.7l-0.9-0.9
	h0.9V262.7z M97.7,261.8h1.7V261l-0.9-0.9h-0.9v-1.7l-1.7-0.9l-0.9-0.9l-0.9-0.9l-0.9-0.9l-0.9-0.9l-1.7,0.9l0.9,0.9l0.9,0.9
	l0.9,0.9l0.9,0.9l0.9,0.9l0.9,0.9h0.9v0.9C96.9,261.1,97.7,261.8,97.7,261.8z M89,256.7l-0.9-0.9H89V256.7z M94.2,262.7h-1.7
	l-5.2-6.1l1.7,0.9h1.8l0.9,2.6l0.9,0.9C92.6,261,94.2,262.7,94.2,262.7z M95.1,261v0.9l-0.9-0.9H95.1z M83.8,261.8L83,261v-0.9
	l1,0.7l0.7,1L83.8,261.8L83.8,261.8z M81.2,260.1l-0.9-0.9v-0.9l1,0.7l0.7,1L81.2,260.1L81.2,260.1L81.2,260.1z M71.7,260.1
	l-0.9-0.9h0.9V260.1z M69.1,259.3l-0.7,1l-1.9-2.7h0.9l0.9,0.9L69.1,259.3L69.1,259.3z M86.4,250.6l-0.9-0.9v-0.9l2.6,1.7H89
	l0.9,0.9l0.9,0.9l-0.9,1.7l-0.9-0.9l-0.9-0.9l-0.9-0.9L86.4,250.6L86.4,250.6z M88.1,248.9v0.9l-0.9-0.9H88.1z M78.6,256.7l-0.9-0.9
	v-0.9l2.6,2.6h-0.9L78.6,256.7L78.6,256.7z M68.3,257.5v-1.7h0.9l0.9,0.9v0.9h-0.9L68.3,257.5z M92.5,252.3h-0.9l-0.9-0.9l-0.9-0.9
	v-1.7h1.7l0.9,1.7h0.9L92.5,252.3L92.5,252.3z M94.2,252.3l-0.9,0.9L94.2,252.3z M95.9,254.1l-1.7,1l0.8-1.9
	C95,253.2,95.9,254.1,95.9,254.1z M96.8,254.9l-0.9,0.9L96.8,254.9z M97.7,256.7h-0.9l0.9-0.9V256.7z M65.7,254.9l-0.9-0.9h0.9
	V254.9z M84.7,253.2v-1.7h0.9L84.7,253.2z M86.4,253.2l-0.9,0.9L86.4,253.2z M88.1,254.9h-1.7l1.7-0.9V254.9z M67.4,254.1h-0.9v-0.9
	h0.9V254.1z M11.2,254.1h-0.9v-0.9L11.2,254.1z M64,248v1.7h-0.9l-0.9-0.9v0.9l-0.9-0.9h0.9V248h-0.9v-0.9h0.9v-1.7h-0.9v-0.9h1.8
	l0.9,0.9v0.9l0.9-0.9l1.7,2.6v4.3h-1.8l-2.6-1.7h2.6L64,248L64,248z M10.4,251.5H9.5v-0.9L10.4,251.5z M71.7,250.6h-0.9v-0.9h0.9
	V250.6z M83.8,249.7v-0.9l0.9-0.9v1.7L83.8,249.7L83.8,249.7z M9.5,249.7H8.6v-0.9L9.5,249.7z M81.2,248l-1.9-1.5l-0.9,0.5l1.9,1
	l0.9,0.9v0.9c-2.4-1.6-3.2-1.6-3.5-5.2l5.2,4.3H82C82,248.9,81.2,248,81.2,248z M69.6,247.6c0,0-0.6-0.3-0.5-0.5L69.6,247.6z
	 M69.1,248.9l-1-0.7l1-1.9H70l0.9,0.9v1.7H69.1z M13,246.3v-1.8h0.9l0.9,2.6h-0.9L13,246.3z M88.1,247.2l-0.9-0.9v-0.9l-0.9-0.9
	l-0.9-0.9l-1.7-2.6l-1.7-2.6l-0.9-0.9v-2.6H82l0.9,0.9l0.9,0.9l0.9,1.7l0.9,1.7l0.9,0.9l0.9,1.7l0.9,0.9v1.7H89v1.7L88.1,247.2
	L88.1,247.2z M83.8,242l0.9,2.6l-0.9-0.9h-0.4L82,243l1-1L83.8,242L83.8,242z M87.3,248l-4.3-3.5l2.6,0.9l0.9,0.9l0.9,0.9L87.3,248
	L87.3,248L87.3,248z M83,241.1l-0.9-0.9L83,241.1z M71.7,246.3h-0.9v-0.9L71.7,246.3z M67.4,242.8l0.9-1.7l1.7,1.7l-1.7,1.7
	l-0.9-0.9V242.8z M70,245.4L70,245.4z M70,243.7l0.9,0.9L70,243.7z M60.5,242l-0.9-2.6v-0.9l5.2,6H64l-0.9-0.9h-1.8
	C61.3,243.6,60.5,242,60.5,242z M12.1,242.8L13,242l0.9,1.7H13L12.1,242.8z M13,240.2l-0.9-0.9L13,240.2z M12.1,241.1l-0.9-0.9
	L12.1,241.1z M9.5,237.6l-0.9-1.7h0.9V237.6z M57.9,235.9l-1-1.7l1.9,0.8L57.9,235.9z M10.4,233.3v-1.7l0.9,1.7H10.4z M76,232.5
	l-0.9-0.9H76V232.5z M10.4,229.9H9.5V229L10.4,229.9z M1.7,227.3V223l1,3.4h1.6v2.6l-1.7,1.7C2.6,230.7,1.7,227.3,1.7,227.3z
	 M3.5,234.2v-3.5l1,1.7l0.7-0.8l1,2.6H3.5z M4.3,229.9l0.9,0.9L4.3,229.9z M9.5,228.1H8.6v-0.9L9.5,228.1z M6.9,228.1L6,227.3h0.9
	V228.1z M8.6,225.6H7.8v-0.9L8.6,225.6z M71.7,224.7l-0.9-0.9h0.9V224.7z M6,223.8L5.2,223H6V223.8z M7.8,222.1H6.9v-0.9L7.8,222.1z
	 M0.9,221.2v-3.5l0.9,3.5H0.9z M70,220.4l-0.9-0.9H70V220.4z M5.2,220.4l-0.9-1.7h0.9V220.4z M69.1,218.6l-0.9-0.9h0.9V218.6z
	 M71.7,210l0.9,0.9v0.9l-0.9,2.6h-0.9l-0.9-0.9v-0.9l-1.4-3.6c-0.1,1.2,1.6,5.4-0.4,5.4v-1.7l-0.9-1.7l0.1-2.6l0.9-1.7l1,0.7
	l0.9-0.6l-1-1.9H70l0.9,1.7l0.9,0.9L71.7,210L71.7,210L71.7,210z M69.1,216.9l0.9-2.6l0.9,1.7l-0.9,1.7L69.1,216.9L69.1,216.9z
	 M70.9,220.4l0.9-2.6v2.6H70.9z M67.4,212.6l-0.9-0.9L67.4,212.6z M72.6,216.9h-0.9V216h0.9V216.9z M4.3,216.9l-0.9-1.7l0.1-4.4h0.9
	v5.2h0.9v-2.6l1.7,4.3H6L4.3,216.9z M66.5,210.9l-0.9-3.5h0.9V210.9z M3.5,209.1l-0.9-0.9h0.9V209.1z M4.3,181.5
	c0-1.9-0.7-10.4,0.9-10.4v9.5l1.7-0.9l1.7,1.1v3.3l4.5,2.3l-3.6,0.3l0.8,2.6l-1.9,1.5c1.3,2.5,1-0.5,1,2.8c0,0.4-0.5,1.5-0.6,1.2
	c0-0.2-0.1,0.7-0.3,0.6l-1-0.7l1.1-1.8L7.7,191l1.1-4.3H6.9l0.8,2.6H5.2l1.7,1L6,191.8l1,1.7l-0.4,2.6H5.2v6c0,3.4,1.7,0.5,1.7,5.2
	H6v-2.6H5.2v5.2H4.3v-15.6H3.5V190h0.9L4.3,181.5L4.3,181.5L4.3,181.5z M65.7,201.4l-0.9-0.9h0.9V201.4z M64.8,198.8l-0.9-0.9h0.9
	V198.8z M68.3,196.2l-0.9-2.6h0.9V196.2z M21.6,191.8L21.6,191.8z M19.2,194.5l0.8-4.3c2,0.2,4.1,1.6,4.1,3.4c0,1.2-1.2,1.7-2.6,1.7
	C19.9,195.3,20.1,195,19.2,194.5L19.2,194.5z M1.7,191.8l-0.9-4.3h0.9V191.8z M69.1,189.3v-2.6H70l0.9,1.7v0.9L69.1,189.3
	L69.1,189.3z M4.3,168.5v2.6H3.5v-2.6H4.3z M2.6,172v-0.9l0.9,0.9C3.5,172,2.6,172,2.6,172z M0,179.7v-6.9h0.9l0.9,5.2l-0.9,1.7H0z
	 M2.6,181.5L2.6,181.5z M0.9,180.6l0.9,1.7H0.9L0,181.5v-0.9H0.9z M15.4,175l1.8,0.6C17.2,175.6,15.4,175,15.4,175z M14.7,171.1
	c0-1,1.2-2,1.7-2.6l-1,3.4h1.8l0.9,4.3l-1.9,2.5l-3.3-0.9l-2.5,2l-0.5-3.6l-0.6-1.7h1.8v1.7l4.2-2C15,172.1,14.7,173.1,14.7,171.1
	L14.7,171.1z M44.9,177.2c0.1-2.4,0.6-2.1,2.6-2.6v2.6H44.9z M2.6,176.3v-2.6h0.9v2.6H2.6z M66.5,173.7V172h-1.7v-4.3h0.9v2.6
	l0.9-1.7h0.9v5.2C67.5,173.8,66.5,173.7,66.5,173.7z M6.9,164.2l1.7,1v3.3l2.5-1l0.1,2.8c-2.8-0.1-4.3,0.3-4.3-2.6
	c0-1.9,0.6-2.6-0.9-2.6v-0.9H6.9z M44.9,150.3l1-1.6l3.3,1l-0.5,7.5c4.3-2.7,0.3-1.5,4-4.3v1.7l2.6-0.8c-0.5,4.1,1.2,1.4-2.6,3.4
	l1.9,2.5l-1.1,1.8h-1.6c-0.3-3.5-0.2-3.6-2.6-2.6l-0.8-2.6l-3.7,3.3l1.9,0.2l-1.1,3.4l1.2-1.6h3.3l1,2.5l2.4,0.1v1.7H51l-1,3.4
	l-2.4-1.8l-0.1,3.6l2.5-1c-1.9,2.8,0.6,1.6-3.4,1.9v-2.6h-1.7l1.9-1.5l-2.7-0.2v1.7l-1.7-0.9l1.9,4.3l-2,0.1v1.7h-1.7v-1.7l-2.5,1
	l1.5-2.1l0.2-3.3l2-2.4l1.4-0.2v1.7c2.3-1.1-0.7-0.9,2.6-0.9c0.1,0,1.7,0.9,1.7,0.9l2.6-1c-2.4-2-1.8-1.6-6-1.6v-3.5h-1.7l-0.7-3.5
	c2.1-1.1-0.9-0.8,2.4-0.8h2.6c-1.9-2.8-1.4-0.6-1.7-4.3h3.5v-1.7L44.9,150.3L44.9,150.3z M2.6,158.1l0.9-1.7h0.9l0.9,3.5v5.2
	l-0.9,1.7H3.5v-3.5H2.6v4.3l-0.9-5.2L2.6,158.1z M0.9,172v-4.3l0.9,4.3H0.9z M218.6,372.5v-1.7h1.7v0.9l-0.9,0.9L218.6,372.5
	L218.6,372.5z M221.2,369h-0.9v-0.9h0.9V369z M231.6,363.8l2.6,0.9l-1.7,0.9l-1.7,0.9l-2.6,0.9l-3.5-0.9l1.7-0.9l3.5-0.9
	L231.6,363.8z M222.1,367.3l2.6,0.9h-2.6V367.3z M235.9,361.2H235v-0.9h0.9V361.2z M212.6,360.4l1.7-0.9h0.9v1.7h-2.6L212.6,360.4
	L212.6,360.4z M264.4,360.4h-0.9v-0.9h0.9V360.4z M241.1,359.5h-0.9v-0.9h0.9V359.5z M216.9,358.6l2.6-0.9h0.9v1.7l-2.6,0.9H216
	v-0.9L216.9,358.6L216.9,358.6z M221.2,356.9l1.7-0.9h0.9v1.7h-2.6L221.2,356.9L221.2,356.9z M226.4,356h-0.9v-0.9h0.9V356z
	 M262.7,355.2H261v-0.9h1.7V355.2z M202.2,355.2v-1.7h1.7l1.7,0.9v0.9L202.2,355.2L202.2,355.2z M214.3,353.4h-1.7v-0.9h1.7V353.4z
	 M208.3,351.7l0.9-0.9h1.7v1.7l-1.7,0.9h-0.9V351.7z M230.7,352.6l1.7,0.9L230.7,352.6z M229,353.4l1.7,0.9L229,353.4z M227.3,354.3
	l1.7,0.9h-1.7V354.3z M227.3,350.9h-0.9V350h0.9V350.9z M238.5,343.9l0.9-1.7h1.8v-0.9h1.8v-0.9l1.9,0.1l-1,0.7l-1.7,0.9l-1.7,0.9
	l-0.9,0.9H238.5z M195.3,347.4l-0.9-0.9h0.9V347.4z M191,347.4l3.5,0.9l-2.6,0.9h-1.7v-0.9L191,347.4z M227.3,343.9
	c0.2-0.2,0.5,0.5,0.5,0.5C227.7,344.4,227.1,344.1,227.3,343.9z M209.1,338.8l1.9,1.5l1.5-0.7l1.8,0.1v0.9l-0.9,0.9l-2.6,0.9h-1.7
	v0.9h-2.6v0.9l-2.6,0.9l-1.7,0.9l-2.6,0.9L197,346l1.7-0.9l1.7-0.9l1.7-0.9l2.6-0.9h1.7v-0.9l0.9-0.9l0.9-1.7L209.1,338.8
	L209.1,338.8L209.1,338.8z M210.9,338.8L210.9,338.8z M196.2,347.4v-0.9l0.9,0.9H196.2z M267.9,337.9H267V337h0.9V337.9z M213.5,337
	l1.7-0.9h0.9v1.7l-1.7,0.9h-0.9V337z M269.6,337h-0.9v-0.9h0.9V337z M272.2,333.6l0.9-0.9h0.9v1.7l-0.9,0.9l-1.7-0.9L272.2,333.6
	L272.2,333.6z M270.5,336.2v-0.9l0.9,0.9H270.5z M274.8,333.6l0.9-0.9h0.9v1.7h-1.7L274.8,333.6L274.8,333.6z M233.3,333.6
	L233.3,333.6z M224.7,333.6H223v-0.9h1.7V333.6z M219.5,331.8l-1.7-0.9h1.7V331.8z M216,331.8l1.7,0.9L216,331.8z M215.2,333.6v-0.9
	l0.9,0.9H215.2z M278.3,332.7h-0.9v-0.9h0.9V332.7z M276.5,331.8h-0.9V331h0.9V331.8z M232.5,327.5L232.5,327.5z M229,328.4
	L229,328.4z M216,328.4h-0.9v-0.9h0.9V328.4z M284.3,324.1h-0.9l0.9-0.9h0.9L284.3,324.1z M210,326.7h-0.9v-0.9h0.9V326.7z
	 M207.4,324.9l-1.7-0.9h1.7V324.9z M203.9,324.9l1.7,0.9l-0.9,0.9h-2.6v-0.9L203.9,324.9z M225.6,325.8v-1.7h0.9v1.7H225.6z
	 M215.2,324.1v-0.9l0.9,0.9H215.2z M288.6,320.6h-0.9l0.9-0.9h0.9L288.6,320.6z M217.8,317.2l0.9-0.9h1.7v0.9l-0.9,1.7l-1.7,0.9
	l-1.7,0.9l-0.9,0.9l-2.6,0.9l-1.7,0.9h-3.5v-0.9l1.7-0.9l1.7-0.9l2.6-0.9l1.7-0.9h1.7L217.8,317.2z M216,317.2h0.9L216,318V317.2z
	 M242.8,321.5H242v-0.9h0.9L242.8,321.5L242.8,321.5L242.8,321.5z M227.2,317.9l-1.8,0.6L227.2,317.9z M220.4,324.1l1.7,0.9
	L220.4,324.1z M218.6,324.9l1.7,0.9L218.6,324.9z M217.8,326.7v-0.9l0.9,0.9H217.8z M223,315.4h-0.9v-0.9h0.9V315.4z M305.1,311.1
	v-0.9l0.9-0.9v0.9L305.1,311.1z M273.5,311.4l-1.7,0.8l0.4,0.5l-1.8,1.1l-0.7-1h0.9L273.5,311.4L273.5,311.4z M244.6,312.8h1.3
	l-2.2,1.7v-0.9L244.6,312.8L244.6,312.8z M230.7,311.1v0.9l-1.7,0.9h-4.3l-1.7,0.9l-1.7-0.9l0.9-0.9l1.7-0.9l1.7-0.9l0.9-0.9
	l1.7-0.9l1.7-0.9l0.9-0.9l1.7-0.9l0.9-0.9l0.9-0.9l2.6-0.9l1.7-0.9l0.9-0.9l0.9-0.9l0.9-0.9h2.6v-1.7h0.9v2.6l-4.3,2.6l-2.5,1
	l0.8,0.7h0.9l1.7-1.7l0.9,1.7l-1.7,0.9h-0.9v0.9h-1.8v0.9H237v0.9h-1.8v0.9h-1.8v1.7h-0.9L230.7,311.1L230.7,311.1z M232.5,309.4
	h-0.9l-1.7,0.9L228,311l1-0.7l2.6-1.7l2.6-1.7l1.9-1.9l0.6,0.9l-0.7,1h-0.9l-0.9,0.9l-0.9,0.9h-0.9L232.5,309.4L232.5,309.4z
	 M219.5,313.7l1.7,0.9h-1.7V313.7z M317.2,297.3h-0.9l-0.9,0.9l-1.7,2.6l-2.6,2.6v-0.9l1-0.7l0.7-1v-0.9h0.9l0.9-1.7l0.9-0.9
	l0.9-0.9v-0.9l1.7-1.7h0.9l-0.9,0.9v0.9l-0.9,0.9V297.3L317.2,297.3z M309.5,304.9l0.6,0.8l-4.2,3.6v-0.9L309.5,304.9z M262.7,296.4
	l0.9-0.9h0.9l0.9-0.9l0.9-0.9l0.7-1l-0.6-0.8l-0.1,0.1l-1,1.8l-0.9,0.9h-0.9l-0.9,0.9l-0.9,0.9h1V296.4z M248,297.3h-0.9v-0.9h0.9
	V297.3z M276.5,296.4l0.9-1.7h0.9l-0.9,1.7l-0.9,0.9l-1,0.7l-0.7,1h-0.9L276.5,296.4z M270.5,301.6l-0.9,1.7h-0.9l0.9-1.7H270.5z
	 M285.2,288.6h-0.9v-0.9h0.9V288.6z M255.8,288.6h-1.7l-2.4,2.8l0.5,0.8c1.4-2,2.7-2.4,4.5-3.6l1-0.7L255.8,288.6L255.8,288.6z
	 M266.2,279.1L266.2,279.1z M320.6,290.4L320.6,290.4z M267.9,274.8v-1.7h1.7L267.9,274.8z M354.7,254.9L354.7,254.9z M357.8,243.7
	V242h1.7v0.9l-0.9,0.9L357.8,243.7L357.8,243.7z M359.5,238.5v-1.8h0.9v0.9h0.9v0.9h-0.9v0.9l-0.9,1.7h-0.9v-2.6L359.5,238.5
	L359.5,238.5z M361.2,235.9v-1.7h0.9v1.7H361.2z M295.6,226.4v-1.7h0.9v1.7H295.6z M296.4,222.1l0.9-1.7v1.7H296.4z M299,219.5v-1.7
	h0.9v1.7H299z M367.3,204.8v-2.6h-0.9L367.3,204.8z M364.7,213.5c1.5-1.3,0.9-6,0.9-8.6l1.7,0.9v0.9c-1.5,1.3-0.9,6-0.9,8.6
	l-0.9,4.3h-1.7v-0.9L364.7,213.5z M300.7,213.5h-0.9v-0.9h0.9V213.5z M300.7,211.7h-0.9v-0.9h0.9V211.7z M366.4,201.4h0.9v-1.7h-0.9
	V201.4z M366.4,198.8h0.9v-8.6h-0.9V198.8z M367.3,189.3v-0.9h-0.9v0.9H367.3z M366.4,187.5h0.9v-4.3h-0.9V187.5z M366.4,182.3h0.9
	v-2.6h-0.9V182.3z M366.4,178.9h0.9v-1.7h-0.9V178.9z M367.3,173.7v-0.9h-0.9v0.9H367.3z M364.7,172.8h-0.9V172h0.9V172.8z
	 M366.4,168.5l-0.9,0.9v-0.9H366.4z M366.4,172h0.9v-2.6L366.4,172z M365.5,167.6v-3.5h0.9v3.5H365.5z M363,159.9l-0.9,0.9v-0.9H363
	z M363.8,161.6H363l0.9-0.9v0.9H363.8z M363.8,153.8v-6.9h0.9l0.9,5.2v0.9L363.8,153.8z M364.7,159l0.9-5.2L364.7,159z M364.7,159.9
	l1.7-0.9v4.3h-0.9l-0.9-2.6L364.7,159.9L364.7,159.9z M361.2,152.1v-2.6h1.7v4.3H362L361.2,152.1L361.2,152.1z M360.4,146.9v-4.4
	h0.9v0.9h0.9v5.2h-0.9L360.4,146.9z M359.5,141.7v-2.6l0.9-0.9v3.4h-0.9V141.7z M356.9,131.4l-0.9-1.7v-0.9h1.7v2.6L356.9,131.4
	L356.9,131.4z M93.3,102l3.5-2.6v3.5h-0.9L95,102H93.3z M98.5,97.7h-0.9l0.9-0.9V97.7z M103.7,95.1v-0.9l-3.5,0.9H103.7z
	 M104.6,93.3v-0.9l-0.9,0.9H104.6z M102.8,86.4l0.9-0.9h0.9v0.9l-1.6,1.9l-1-1C102,87.3,102.8,86.4,102.8,86.4z M102,79.5l0.9-0.9
	h0.9l-10.4,9.5v-0.9l1-0.7l0.7-1l0.9-0.9l1-0.7l0.7-1l0.9-0.9l0.9-0.9l0.9-0.9L102,79.5z M94.2,85.6l-0.9,0.9L94.2,85.6z M96.8,83
	l-0.9,0.9L96.8,83z M105.4,89l4.1-4.5l-0.5-0.8l-0.9,1.2l-1-1V83l2.6-0.9h0.9v-0.9h0.9v0.9h-0.9V83h0.9v0.9h-0.9v1.7l-1.7,0.9
	l-0.9,0.9l-0.9,1.7L105.4,89C105.4,89.1,105.4,89,105.4,89z M120.1,80.4l-0.9-0.9h0.9V80.4z M117.5,80.4h1.7v1.7l-0.9,0.9l-0.9,0.9
	h-0.9v-2.6C116.5,81.3,117.5,80.4,117.5,80.4z M163.3,77.8l1.7-0.9h0.9v1.7L163.3,77.8L163.3,77.8z M160.7,78.6l2.6,0.9l-1.7,0.9
	l-1.7,0.9h-2.6v-0.9l1.7-0.9L160.7,78.6z M127,74.3V76h-2.6l-0.9,0.9l-0.9,0.9v1.7h0.9l1.7-0.9v-1.8h3.5l0.9-0.9v-2.6h-1.7
	C127.9,73.3,127,74.3,127,74.3z M155.6,77.8V76h1.7v0.9l-0.9,0.9H155.6z M133.1,74.3v-0.9h2.6v-0.9h0.9l0.9-0.9h2.6L141,69v-0.9
	h-2.6l-0.9,0.9l-0.9,0.9h-2.7l-0.9,0.9v2.6h-1.7v0.9H133.1L133.1,74.3z M113.2,71.7v-0.9l0.9-1.7l0.9-0.9h1.8l0.9,0.9V70l-0.9,0.9
	l-0.9,0.9l-0.9,0.9h-1.7C113.3,72.7,113.2,71.7,113.2,71.7z M65.7,74.3v0.9L64.8,76L64,74.3l-0.9,0.9L62.2,76l-2.6,3.5l-0.9,1.7
	l-0.9,0.9L57,83.8L55.3,83v-0.9l0.9-0.9l0.9-0.9l0.9-1.7h0.9v-1.8l0.9-0.9h0.9v-1.7l0.9-0.9l0.9-0.9l0.9-0.9l0.9-0.9V70h0.9l0.9-0.9
	l0.9-0.9h1.7v-1.7l0.9-0.9l1.7-0.9l0.9-0.9l0.9-1.7l0.9-0.9l0.9-0.9l0.9-0.9l0.9-0.9l0.9-0.9l0.9-0.9l0.9-0.9l1.7-0.9L82,54h0.9
	v-0.9H83l0.9-1.7l0.9-0.9l0.9-0.9v-0.9h1.8v-0.9H89v-0.9l0.9-0.9h1.8v-0.9h0.9l1.7-0.9l0.9-0.9h1.7v-1.7h2.6v-0.9l0.9-0.9l1.7-0.9
	L103,38h0.9l0.9-0.9l0.9-0.9h2.6l0.9-0.9h0.9l0.9-0.9v-0.9h2.6l0.9,0.9l-0.9,0.9h-1.7l-0.9,0.9l-0.9,0.9l-1.7,0.9l-0.9,0.9l-1.7,0.9
	l-0.9,0.9h-1.7v0.9h-2.1v0.9h-1.8v0.9l-0.9,0.9h-0.9l-0.9,0.9l-0.9,0.9h-0.9V47h-0.9L93,47.9l-1.7,0.9l-0.9,0.9L89.9,51L89,51.8
	l-0.9,0.9l-0.9,1.7l-0.9,0.9l-0.9,0.9L84.7,57l-0.9,0.9l-1.7,0.9v0.9h-0.9l-0.9,0.9l-0.9,0.9h-0.9v0.9h-0.9l-0.9,0.9v0.9H76
	l-0.9,0.9l-0.9,1.7l-0.9,0.9l-0.9,0.9l-0.9,0.9H70v1.7l-0.9,0.9L68.2,73l-0.9,0.9v0.9h-0.9C66.4,74.8,65.7,74.3,65.7,74.3z
	 M64.8,73.5l1-1.9l0.6,0.9l-0.7,1H64.8z M124.4,70.9l-0.9-0.9v-0.9h2.6V70l-0.9,0.9C125.2,70.9,124.4,70.9,124.4,70.9z M90.7,69.1
	h0.9l-0.7,1C90.9,70.1,90.7,69.1,90.7,69.1z M91.6,68.3h0.9l-0.7,1C91.8,69.3,91.6,68.3,91.6,68.3z M92.5,67.4h0.9l-0.7,1
	C92.7,68.4,92.5,67.4,92.5,67.4z M93.3,66.5L93.3,66.5z M95.1,65.7l0.9,0.9L95.1,65.7z M95.1,68.3l0.9-0.9L95.1,68.3z M88.1,74.3
	l0.9-0.9L88.1,74.3z M160.7,63.9L160.7,63.9z M102,59.6h1.7l-1.6,1.9l-1-1L102,59.6z M103.7,58.8l0.9,0.9L103.7,58.8z M105.4,57.9
	v0.9l-0.9-0.9H105.4z M178,59.6v-0.9h1.7l0.9,0.9H178L178,59.6z M95.9,55.3l1.7-0.9h2.6v0.9l-0.9,0.9L97.7,57l-0.9,0.9l-0.9,1.7
	l-3.5,0.9l-0.9,0.9L90.6,64H89l-0.9,0.9l-0.9,1.7h-1.7v-0.9l0.9-2.6l0.9-0.9l1.7-0.9l0.9-0.9l0.9-0.9l0.9-0.9l0.9-0.9l0.9-0.9
	l0.9-0.9C94.4,55.9,95.9,55.3,95.9,55.3z M93.1,58.5l2.9-2.1l0.9,0.6L93.1,58.5z M107.2,57.9h-0.9V57h0.9V57.9z M125.3,55.3
	L125.3,55.3z M147.8,54.4v-0.9l0.9,0.9H147.8z M101.1,54.4l-0.9-0.9v-0.9h1.7v1.7h-0.8C101.1,54.3,101.1,54.4,101.1,54.4z M151.2,51
	v0.9h-0.9V51H151.2z M211.7,45.8v-0.9H210V44l-0.9-0.9h-0.9l-0.9-0.9l-3.5-0.9H197v-0.9h-4.3v-0.9c3.7,0,13.7-1.3,15.6,0.9l3.5,0.9
	h3.5l0.9,0.9h4.3l0.9,0.9h2.6l0.9,0.9h1.7l0.9,0.9l1.7,0.9h1.7l0.9,0.9l0.9,0.9h1.7l0.9,0.9l1.7,0.9h1.7l0.9,0.9h0.9l0.9,0.9
	l1.7,0.9h2.7v-1.7l2.6,1.7L251,53h2.6l0.9,1.7l1.7,0.9l1.7,0.9h0.9l1,0.7l0.7,1l0.9,0.9l0.9,0.9l1.7,0.9h2.6l4.3,5.2l0.9,0.9
	l0.9,0.9l0.9,0.9h1.7l6.7,7.1l-0.6,0.7H280l-3.5-3.5l-0.9-0.9h-0.9l-0.9-0.9l-0.9-0.9l-0.9-0.9l-0.9-0.9h-3.4l-0.9-1.7l-0.9-0.9
	l-0.9-0.9l-1.7-0.9h-0.9l-1-0.7l-0.7-1h-3.5l-0.9-1.7l-0.9-0.9h-0.9l-1-0.7l-0.7-1l-0.9-0.9l-1.7-0.9h-0.9l-0.9-0.9h-1.7l-2.6-2.6
	h-0.9l-1.7-0.9l-2.6-0.9h-2.6l-0.9-0.9h-1.7l-0.9-0.9h-1.7l-1.7-0.9H229l-1.7-0.9h-1.7l-0.9-0.9h-4.3c-1.6,0-6.9,0.7-6.9-0.9h-1.8
	L211.7,45.8L211.7,45.8z M97.7,43.2c0.2-0.2,0.5,0.5,0.5,0.5S97.5,43.4,97.7,43.2z M191.8,39.8v0.9h-2.6v-0.9H191.8z M153.7,39.4
	l1.8-0.6L153.7,39.4z M148.6,36.3l2.6-0.9h0.9v1.7l-1.7,0.9h-1.7v-1.7H148.6z M158.1,35.1L158.1,35.1z M162.5,31.1h-1.7v-0.9h1.7
	V31.1z M151.2,28.5l2.6-0.9h1.7l1.7-0.9l3.5-0.9h1.7v-0.9h0.9L165,24l4.3-0.9c1.5,0,6,0.7,6-0.9c1.9,0,10.4,0.7,10.4-0.9h5.2v0.9
	l-0.9,0.9h-0.9c-1.7,0-8.6-0.7-8.6,0.9c-1.5,0-6-0.7-6,0.9c-1.5,0-6-0.7-6,0.9l-2.6,0.9l-2.6,0.9l-2.6,0.9h-3.5v0.9l-4.3,0.9
	l-3.5,0.9h-1.7v-0.9l0.9-0.9L151.2,28.5L151.2,28.5z M174.6,26.8l-2.6,0.9c0,1.5,4.5,0.9,6,0.9c0-1.6,5.3-0.9,6.9-0.9l2.6-0.9v-0.9
	h-6.9C180.6,27.5,176.1,26.8,174.6,26.8z M170.2,28.5v0.9h1.7L170.2,28.5z M159.9,24.2v-0.9h-1.7v0.9H159.9z M164.2,23.3h3.5
	l0.9-0.9v-0.9l-2.6-0.9h-2.6v0.9L164.2,23.3L164.2,23.3z M162.5,22.5v-0.9h-1.7v0.9H162.5z M178,21.6v-0.9h-3.5L178,21.6z
	 M173.7,22.5h0.9l-0.9-0.9V22.5z M182.3,20.7h-3.5l-4.3-0.9V19l0.9-0.9h3.5l2.6-0.9h6.9v-0.9h0.9v0.9l0.9-0.9h13.1l0.9,1.7h-3.5
	l-0.9,0.9l-1.7,0.9h-10.4v0.9C187.7,20.7,182.3,20.7,182.3,20.7z M172,20.7h0.9l0.9-0.9V19H172L172,20.7L172,20.7z M166.8,12.1v-0.9
	h-0.9L166.8,12.1z M162.5,12.1L166,13L162.5,12.1z M159,13l3.5,0.9V13H159z M161.6,14.7v1.9l-1.7-1H159l-5.2,0.9l-3.5,0.9l-2.6,0.9
	L146,19h-0.9v0.9h-1.7l-0.9,0.9l-2.6,0.9l-2.6,0.9l-2.6,0.9l-1.7,0.9l-0.9,0.9l-1.7,0.9v0.9h2.6l1.7-0.9l1.7-0.9l1.7-0.9l3.5-0.9
	l1.7-0.9l2.6-0.9l2.6-0.9l2.6-0.9l2.6-0.9l4.3-0.9c0-1.5,4.1-1.3,5.2,0h0.9l0.9-0.9l0.9-0.9v0.9h2.6l1.7-0.9l2.6-0.9l1.7-0.9h2.6
	v-0.9h0.9l2.6,0.9c0-1.5,4.1-1.3,5.2,0h2.6v-0.9l-0.9-0.9h1.7v1.7h1.7V13h0.9v1.7h4.3V13h11.2v0.9h0.9V13h0.9v-0.9h-3.5V9.5h1.7V8.6
	l-0.9-0.9h-0.9v0.9h-0.9V7.8l-0.9-0.9h-11.2V5.2h1.8l0.9-0.9V3.5H191v0.9h-0.9l-0.9-2.6l-0.9,1.7v0.9h-3.5v0.9h-0.9l0.9,0.9v0.9h1.7
	V6h5.2L191,6.9l-2.6,0.9v0.9h-4.3l-2.6,0.9h-0.9l-0.9,0.9l-2.6,0.9l-0.9,0.9v-1.7h-0.9V9.5h-0.9v0.9h0.9V13h-0.9v0.9h-9.6v0.9h-0.9
	v-0.9L161.6,14.7L161.6,14.7z M157.3,13.8l1.7,0.9h-1.7V13.8z M208.3,18.1h-1.7v-0.9h1.7V18.1z M204.8,16.4h-0.9l0.9,0.9V16.4z
	 M178.9,15.6v-0.9l0.9,0.9H178.9z M174.6,12.1h-0.9v-0.9h0.9V12.1z M156.4,9.5l3.5-0.9h3.5v0.9l-0.9,0.9h-1.8l-3.5,0.9h-0.9
	L156.4,9.5L156.4,9.5z M170.2,7.8l-2.6-0.9h2.6V7.8z M164.2,7.8l3.5,0.9h-3.5C164.2,8.7,164.2,7.8,164.2,7.8z M183.2,6.9V6l0.9,0.9
	H183.2z M181.5,6l-0.9-0.9h0.9V6z M179.8,6.9V6l0.9,0.9H179.8z M197.9,4.3h-1.7V3.5h1.7V4.3z M191,1.7l-0.9-0.9h0.9V1.7z M192.7,0.9
	V0h0.9v0.9l1.7-0.9h5.2v0.9l-0.9,0.9c-1.5,0-6-0.7-6,0.9h-0.9C192.7,2.7,192.7,0.9,192.7,0.9z M63.1,167.6H64v1.7l-0.9,1.7l-2.5-1.7
	v-1.7h1.7v0.9h0.9v-0.9C63.2,167.6,63.1,167.6,63.1,167.6z M62.2,166.8h-0.9v-2.6h0.9V166.8z M62.2,159c0.2-0.2,0.5,0.5,0.5,0.5
	S62.1,159.2,62.2,159z M34.6,153l0.9,0.9l-0.9,0.9V153L34.6,153z M36.3,151.2h-0.9v-1.7l0.9,0.9V151.2z M38.9,145.2l-0.9-1.7v-0.9
	h0.9V145.2L38.9,145.2z M39.8,140h-0.9v-0.9h0.9V140z M51.9,132.2l-0.9,0.9L51.9,132.2z M51,136.5l-0.9,0.9v-0.9H51z M77.8,131.4
	l-0.9-0.9h0.9V131.4z M76.9,133.1l-0.9-1.7L76.9,133.1z M74.3,134.8l0.9-1.7l0.9,3.5l-0.9,0.9h-0.9V134.8z M52.7,128.8l1,2.6l-1-0.8
	V128.8z M50.1,127l0.7,1.9l-0.7-1C50.1,127.9,50.1,127,50.1,127z M31.1,121H32v-1.7l0.9,0.9l0.9,1.7H32v0.9l-0.9-0.9
	C31.1,121.9,31.1,121,31.1,121z M47.5,123.6l-0.9-0.9h0.9V123.6z M64.8,122.7L64.8,122.7z M85.6,121h-0.9v-0.9h0.9V121z M70,114.1
	l-0.9,0.9L70,114.1z M69.1,121H70l-0.7,1l0.9,2.4c-3.5-3.4,1.5-0.1-2.8-1.7C67.4,122.7,69.1,121,69.1,121z M73.5,114.9h-0.9V114h0.9
	V114.9z M67.4,118.4l-0.9,0.9L67.4,118.4z M68.3,116.7l-0.9,0.9L68.3,116.7z M51,117.5v0.9l0.9-1.7C51.9,116.7,51,117.5,51,117.5z
	 M24.2,117.5l-0.9-0.9l-0.9-0.9l0.9-0.9v0.9h0.9V117.5z M86.4,118.4h-0.9v-0.9h0.9V118.4z M42.3,116.7h-0.9v0.9l0.9,1.7v-0.9h0.9
	v-1.8h0.9v-1.8H45v-0.9l0.9-0.9v-1.7h0.9v-1.8h0.9v-0.9l0.9-0.9V106h0.9v-0.9h0.9l0.9-1.7l0.9-0.9l-0.9-2.6l-0.9,0.9l-0.9,1.7
	l-0.9,1.7l-0.9,0.9v0.9l-0.9,0.9v0.9h-0.9v1.8H45v0.9l-0.9,1.7l-0.9,0.9l-0.9,1.7C42.3,114.8,42.3,116.7,42.3,116.7z M25.1,114.9
	h-0.9V114h0.9V114.9z M65.2,112.7c0,0,0.3,0.6,0.5,0.5C65.8,113.1,65.2,112.7,65.2,112.7z M25.1,113.2h-0.9v-0.9h0.9v-0.9l0.9-0.9
	v0.9L25.1,113.2z M25.9,108.9V108l1.7-0.9v0.9L25.9,108.9z M44.9,103.7l-0.9-0.9h0.9V103.7z M43.2,105.4v-1.7l0.9,1.7H43.2z
	 M53.6,98.5l-0.9-0.9h0.9V98.5z M51.9,98.5l0.5,1.7L51.9,98.5z M52.7,102.8h1.7v-2.6h-1.7V102.8z M54.4,99.4l0.9,0.9v-0.9h0.9
	l0.9-0.9l-0.9-1.7h-0.9l-0.9,1.7V99.4z M35.4,94.2l0.9-0.9v-0.9h-1.7L35.4,94.2z M34.6,95.9l-0.9-1.7L34.6,95.9z M72.4,98.4l0.9-0.9
	c1.5,1.2-1.6,1,1.9,1c0.4,0,0.6-1.2,0.9-0.9l1,0.7c-2,2.2-1.9,1.2-2.7,3.6h-1.7l0.4-2.7L72.4,98.4L72.4,98.4z M45.8,102h-0.9v-0.9
	h0.9V102z M45.8,98.5v1.7l0.9,0.9h0.9l0.9-0.9v-4.3h0.9V95h0.9v-0.9l1.7-0.9l0.9-2.6l0.9-0.9l0.9-1.7l0.9-0.9v-0.9h0.9l-0.9-2.6
	l-0.9,0.9l-0.9,0.9v0.9l-0.9,0.9H52v0.9L51,89l-0.9,1.7l-0.9,1.7h-0.9V95h-0.9l-0.9,2.6l1,1l-0.9,0.6C46.6,99.2,45.8,98.5,45.8,98.5
	z M57,95.9l0.9-1.7h0.9v2.6l-0.9,0.9L57,95.9z M73.5,89.9l-0.9,0.9L73.5,89.9z M64.8,95.9H64V95h0.9L64.8,95.9L64.8,95.9z
	 M59.6,92.5l0.9-0.9h1.7v0.9l-0.9,0.9h-1.7V92.5z M77.8,88.1l0.9-1.7L77.8,88.1z M68.3,83.8l-0.9-1.7h0.9v-0.9l0.9-0.9l0.9-0.9
	l0.9-0.9l0.9-1.7l0.9-0.9l0.9-0.9l0.9-0.9l0.9-0.9h1.7v1.7L76,76h-1.7v1.7l-0.9,0.9v1.7h-0.9v-0.9l-0.9,1.7L70.7,82l-2.4,1
	L68.3,83.8L68.3,83.8z M65.7,84.7l0.9-0.9l0.9,1.7h-1.7C65.8,85.5,65.7,84.7,65.7,84.7z M60.5,80.4v-1.7l2.5-1.9l0.1,1.9l-0.9,0.9
	l-0.9,0.9C61.3,80.5,60.5,80.4,60.5,80.4z M63.1,76l0.9,0.9L63.1,76z M70.9,83.8L70.9,83.8z M69.1,84.7v-0.9l0.9,0.9H69.1z
	 M78.6,70.9l0.9-1.7h1.7V70l-0.9,1.7l-0.9,0.9C79.4,72.6,78.6,70.9,78.6,70.9z M77.8,73.5v-0.9l0.9,0.9H77.8z M64,60.5l-1.7-0.9H64
	V60.5z M61.4,58.8h-1.8v0.9h0.9l-0.9,0.9v-0.9h-0.9v0.9L57,61.4v3.5h-0.9l-0.9,0.9l-0.9,0.9l1.7,0.9l1.7-0.9v2.6h1.7l0.9-0.9v-0.9
	h0.9l0.9-0.9l0.9-0.9v-0.9h1v-0.9h0.9v-2.6h0.9l0.9-2.6l0.9-1.7l0.9-0.9l1.7-0.9l0.9-0.9v-1.7h-1.7l-0.9,1.7l-0.9,0.9h-0.9l-0.9-0.9
	v0.9h0.9l-0.9,0.9l-1,0.9L64,57.9v0.9h-1.7l-0.9-0.9C61.4,57.9,61.4,58.8,61.4,58.8z M52.7,68.3l0.9-0.9l0.9,1.7h-1.7v-0.8
	C52.8,68.3,52.7,68.3,52.7,68.3z M63.1,57.9L62.2,57h0.9V57.9z M66.5,52.7v1.8l1.7-0.9v-1.7h-0.9C67.3,51.9,66.5,52.7,66.5,52.7z
	 M129.8,292.8l-0.9-0.9l0.6-0.6l1.2,0.9L129.8,292.8L129.8,292.8z M13.8,254.1l0.9,1.7l0.7,1.9l-0.7-1l-0.9-0.9v-0.9l-1.9-4.3
	L13.8,254.1z M11.7,250l-1.7-2.6l2-0.2L11.7,250z M77.8,243.7h-0.9l-1-0.7L77.8,243.7z M70,228.1v-0.9l-0.9-1.7l-0.9-0.9l-1-2.6h1.9
	v1.7l0.9,0.9l0.9,2.6v0.9l0.9,0.9v0.9h-0.9L70,228.1L70,228.1z M65.7,217.8l0.9,0.9h-0.9l-0.9-0.9H65.7z M37.2,210l0.9,0.9v6.9h-0.9
	V216c-1.6,0-0.9-5.3-0.7-7.1L37.2,210L37.2,210z M95.9,95.1v-1.7h1.7v1.7H95.9z M287.8,327.5c0.2-0.2,0.4,0.4,0.5,0.5
	C288.3,328,287.6,327.7,287.8,327.5z M225.4,318.5l1.8-0.6L225.4,318.5z M159.9,35.1L159.9,35.1z M326.7,76.9l0.9,0.9L326.7,76.9z
	 M354.7,256.7L354.7,256.7z M320.6,290.4L320.6,290.4z M281.7,97.7l0.9,0.9v0.9l0.9,0.9h-0.9l-0.9-0.9l-0.9-0.9v-0.9l-1-1.7
	L281.7,97.7z M267,83l0.9,0.9l0.9,0.9l0.9,0.9l0.9,0.9l0.9,0.9l1,0.7l0.7,1l0.9,1.7l0.9,0.9l0.9,0.9l1,1.7l-2.7-2.5l-0.9-0.9
	l-0.9-0.9l-1-0.7l-0.7-1h-0.9l-0.9-0.9l-0.9-0.9l-0.9-0.9l-0.9-0.9l-0.9-0.9l-1-1.7L267,83z M288.6,81.2l0.9,0.9l0.9,0.9l0.9,0.9
	h-0.9l-0.9-0.9l-0.9-0.9l-0.9-0.9l-1-0.7L288.6,81.2z M155.5,38.8l-1.8,0.6L155.5,38.8z"/>
</svg>
